# Blender v2.92.0 OBJ File: 'playerbullet.blend'
# www.blender.org
mtllib enemybullet.mtl
o 平面
v 0.000000 -1.582793 0.000000
v -0.500000 -1.000000 0.000000
v 0.500000 -1.000000 0.000000
v 0.600932 -0.618571 0.000000
v 0.602069 -0.448695 0.000000
v -0.602069 -0.448695 0.000000
v -0.600932 -0.618571 0.000000
v 0.460807 -0.078588 -0.000000
v 0.545807 -0.223968 -0.000000
v -0.460807 -0.078588 0.000000
v -0.545807 -0.223968 0.000000
v 0.085736 0.117606 -0.000000
v -0.000000 0.048403 -0.000000
v -0.085736 0.117606 -0.000000
v -0.217375 0.089189 -0.000000
v -0.318974 -0.015582 0.000000
v -0.366810 0.010386 0.000000
v 0.366810 0.010386 -0.000000
v 0.318974 -0.015582 -0.000000
v 0.217375 0.089189 -0.000000
vt 0.487915 0.504959
vt 0.495233 0.506539
vt 0.500000 0.502691
vt 0.517734 0.499134
vt 0.512085 0.504959
vt 0.474381 0.495631
vt 0.479606 0.500577
vt 0.482266 0.499134
vt 0.504767 0.506539
vt 0.520394 0.500577
vt 0.525620 0.495631
vt 0.530345 0.487548
vt 0.500000 0.412001
vt 0.472201 0.444403
vt 0.527799 0.444403
vt 0.466590 0.465609
vt 0.466527 0.475054
vt 0.469655 0.487548
vt 0.533473 0.475054
vt 0.533410 0.465609
vn -0.0000 -0.0000 -1.0000
usemtl マテリアル
s off
f 15/1/1 14/2/1 13/3/1
f 19/4/1 13/3/1 20/5/1
f 10/6/1 17/7/1 16/8/1
f 12/9/1 13/3/1 14/2/1
f 15/1/1 16/8/1 17/7/1
f 18/10/1 19/4/1 20/5/1
f 8/11/1 9/12/1 19/4/1
f 13/3/1 1/13/1 2/14/1
f 2/14/1 16/8/1 13/3/1
f 16/8/1 15/1/1 13/3/1
f 19/4/1 3/15/1 13/3/1
f 3/15/1 1/13/1 13/3/1
f 13/3/1 12/9/1 20/5/1
f 16/8/1 2/14/1 7/16/1
f 7/16/1 6/17/1 16/8/1
f 6/17/1 11/18/1 16/8/1
f 11/18/1 10/6/1 16/8/1
f 9/12/1 5/19/1 19/4/1
f 5/19/1 4/20/1 19/4/1
f 4/20/1 3/15/1 19/4/1
f 19/4/1 18/10/1 8/11/1
