# Blender v2.92.0 OBJ File: ''
# www.blender.org
mtllib frame.mtl
o 平面
v 0.000000 -10.000000 0.000000
v -0.000000 10.000000 -0.000000
v 18.000000 0.000000 -0.000002
v -18.000000 0.000000 0.000002
v -9.000000 -10.000000 0.000001
v -9.000000 10.000000 0.000000
v -16.957933 -0.000000 0.000001
v 9.000000 10.000000 -0.000001
v 9.000000 -10.000000 -0.000000
v 16.957933 -0.000000 -0.000002
v -18.000000 5.000000 0.000001
v -0.000000 8.998304 -0.000000
v 18.000000 5.000000 -0.000002
v 18.000000 -5.000000 -0.000001
v -18.000000 -5.000000 0.000002
v 0.000000 -8.998304 0.000001
v -17.108347 10.000000 0.000001
v -18.000000 9.504637 0.000001
v -17.449570 9.962294 0.000001
v -17.738842 9.854912 0.000001
v -17.932129 9.694205 0.000001
v 18.000000 9.549302 -0.000002
v 17.188744 10.000000 -0.000002
v 17.891314 9.774652 -0.000002
v 17.594372 9.939619 -0.000002
v -18.000000 -9.474173 0.000002
v -17.053511 -10.000000 0.000002
v -17.873196 -9.737086 0.000002
v -17.526756 -9.929553 0.000002
v 16.773478 -10.000000 -0.000001
v 18.000000 -9.318599 -0.000001
v 17.386738 -9.908710 -0.000001
v 17.835678 -9.659299 -0.000001
v -15.986921 -9.016078 0.000001
v -16.010853 -9.138947 0.000001
v -17.140862 -8.458526 0.000001
v -16.999317 -8.453233 0.000001
v -16.375008 -9.043320 0.000001
v -16.484810 -8.932939 0.000001
v -16.656624 -8.954562 0.000001
v -16.516123 -8.997139 0.000001
v -16.379467 -9.066216 0.000001
v -16.661839 -8.965874 0.000001
v -17.052895 -8.674194 0.000001
v -16.927027 -8.749717 0.000001
v -16.892044 -8.832930 0.000001
v -16.850025 -8.729896 0.000001
v -17.034466 -8.673505 0.000001
v -16.882187 -8.830658 0.000001
v -16.999912 8.575006 0.000001
v -17.110895 8.579157 0.000001
v -16.224878 9.112660 0.000001
v -16.206116 9.016322 0.000001
v -17.027470 8.747716 0.000001
v -16.882854 8.791933 0.000001
v -16.908073 8.870937 0.000001
v -16.943232 8.807474 0.000001
v -17.041922 8.748257 0.000001
v -16.915802 8.872718 0.000001
v -16.513899 9.055634 0.000001
v -16.621048 9.001472 0.000001
v -16.735302 8.976957 0.000001
v -16.596495 8.951134 0.000001
v -16.510405 9.037682 0.000001
v -16.731215 8.968088 0.000001
v 16.206116 9.016322 -0.000002
v 16.224878 9.112660 -0.000002
v 17.110895 8.579157 -0.000002
v 16.999912 8.575006 -0.000002
v 16.510405 9.037682 -0.000002
v 16.596497 8.951134 -0.000002
v 16.731215 8.968087 -0.000002
v 16.621048 9.001472 -0.000002
v 16.513901 9.055634 -0.000002
v 16.735302 8.976956 -0.000002
v 17.041922 8.748257 -0.000002
v 16.943232 8.807474 -0.000002
v 16.915800 8.872718 -0.000002
v 16.882853 8.791932 -0.000002
v 17.027470 8.747717 -0.000002
v 16.908073 8.870937 -0.000002
v 16.999912 -8.575006 -0.000002
v 17.110895 -8.579157 -0.000002
v 16.224878 -9.112660 -0.000001
v 16.206116 -9.016322 -0.000002
v 17.027470 -8.747716 -0.000002
v 16.882854 -8.791933 -0.000002
v 16.908073 -8.870937 -0.000002
v 16.943232 -8.807474 -0.000002
v 17.041922 -8.748257 -0.000002
v 16.915802 -8.872718 -0.000002
v 16.513899 -9.055634 -0.000002
v 16.621048 -9.001472 -0.000002
v 16.735302 -8.976957 -0.000002
v 16.596495 -8.951134 -0.000002
v 16.510405 -9.037682 -0.000002
v 16.731215 -8.968088 -0.000002
vt 0.745861 0.348625
vt 0.745433 0.351305
vt 0.747155 0.351241
vt 0.202371 0.337354
vt 0.219019 0.348594
vt 0.225395 0.344755
vt 0.217461 0.620087
vt 0.217888 0.617407
vt 0.216166 0.617471
vt 0.737892 0.343848
vt 0.733408 0.342963
vt 0.733117 0.344458
vt 0.481661 0.623975
vt 0.481661 0.639517
vt 0.621306 0.639517
vt 0.760951 0.632524
vt 0.744554 0.621014
vt 0.739555 0.624024
vt 0.744554 0.347698
vt 0.760951 0.339768
vt 0.739555 0.344688
vt 0.229914 0.625749
vt 0.342016 0.639517
vt 0.230205 0.624254
vt 0.747155 0.617471
vt 0.760951 0.561937
vt 0.745433 0.617407
vt 0.233606 0.344462
vt 0.481661 0.344737
vt 0.342016 0.329195
vt 0.227584 0.344039
vt 0.225881 0.345751
vt 0.223134 0.345240
vt 0.223215 0.345416
vt 0.227515 0.343684
vt 0.233235 0.342555
vt 0.217066 0.349766
vt 0.215701 0.353113
vt 0.217352 0.349777
vt 0.219562 0.347303
vt 0.220214 0.348902
vt 0.217897 0.353195
vt 0.219715 0.347338
vt 0.202371 0.406775
vt 0.219704 0.620773
vt 0.219193 0.622026
vt 0.219313 0.621998
vt 0.218768 0.621014
vt 0.217236 0.620095
vt 0.221994 0.623644
vt 0.225429 0.624864
vt 0.223767 0.624024
vt 0.225483 0.624586
vt 0.224148 0.623243
vt 0.222057 0.623506
vt 0.737838 0.624586
vt 0.739174 0.623243
vt 0.733117 0.624254
vt 0.741328 0.623644
vt 0.741264 0.623506
vt 0.737892 0.624864
vt 0.733408 0.625749
vt 0.746085 0.620095
vt 0.745861 0.620087
vt 0.744128 0.622026
vt 0.743617 0.620773
vt 0.744008 0.621998
vt 0.743617 0.347939
vt 0.744128 0.346686
vt 0.744008 0.346713
vt 0.746085 0.348617
vt 0.741328 0.345068
vt 0.737838 0.344126
vt 0.739174 0.345469
vt 0.741264 0.345206
vt 0.202371 0.631831
vt 0.760951 0.484356
vt 0.760951 0.406775
vt 0.744782 0.484356
vt 0.217057 0.329195
vt 0.209714 0.330288
vt 0.204338 0.333274
vt 0.218540 0.484356
vt 0.202371 0.561937
vt 0.202371 0.484356
vt 0.621306 0.329195
vt 0.481661 0.329195
vt 0.754657 0.638580
vt 0.759264 0.636021
vt 0.748363 0.639517
vt 0.758401 0.334481
vt 0.751435 0.330611
vt 0.741920 0.329195
vt 0.203424 0.634772
vt 0.206423 0.637266
vt 0.210911 0.638932
vt 0.216206 0.639517
vn 0.0000 -0.0000 -1.0000
vn -0.0000 -0.0000 1.0000
usemtl マテリアル
s off
f 86/1/1 82/2/1 83/3/1
f 26/4/1 45/5/1 41/6/1
f 54/7/1 50/8/1 51/9/1
f 92/10/1 84/11/1 85/12/1
f 12/13/1 2/14/1 8/15/1
f 22/16/1 77/17/1 73/18/1
f 89/19/1 31/20/1 93/21/1
f 52/22/1 6/23/1 53/24/1
f 68/25/1 13/26/1 69/27/1
f 34/28/1 16/29/1 5/30/1
f 38/31/1 39/32/1 34/28/1
f 38/31/1 43/33/1 40/34/1
f 41/6/2 42/35/2 35/36/2
f 45/5/2 43/33/2 41/6/2
f 44/37/2 45/5/2 36/38/2
f 48/39/1 46/40/1 44/37/1
f 47/41/1 48/39/1 37/42/1
f 39/32/1 49/43/1 47/41/1
f 40/34/1 46/40/1 49/43/1
f 36/38/1 15/44/1 37/42/1
f 54/7/1 55/45/1 50/8/1
f 54/7/1 59/46/1 56/47/1
f 57/48/2 58/49/2 51/9/2
f 57/48/2 62/50/2 59/46/2
f 60/51/2 61/52/2 52/22/2
f 64/53/1 62/50/1 60/51/1
f 63/54/1 64/53/1 53/24/1
f 63/54/1 56/47/1 65/55/1
f 59/46/1 65/55/1 56/47/1
f 70/56/1 71/57/1 66/58/1
f 70/56/1 75/59/1 72/60/1
f 73/18/2 74/61/2 67/62/2
f 77/17/2 75/59/2 73/18/2
f 76/63/2 77/17/2 68/25/2
f 80/64/1 78/65/1 76/63/1
f 79/66/1 80/64/1 69/27/1
f 71/57/1 81/67/1 79/66/1
f 72/60/1 78/65/1 81/67/1
f 86/1/1 87/68/1 82/2/1
f 86/1/1 91/69/1 88/70/1
f 89/19/2 90/71/2 83/3/2
f 89/19/2 94/72/2 91/69/2
f 92/10/2 93/21/2 84/11/2
f 96/73/1 94/72/1 92/10/1
f 95/74/1 96/73/1 85/12/1
f 95/74/1 88/70/1 97/75/1
f 91/69/1 97/75/1 88/70/1
f 61/52/1 57/48/1 18/76/1
f 3/77/1 14/78/1 10/79/1
f 14/78/1 83/3/1 82/2/1
f 10/79/1 14/78/1 82/2/1
f 83/3/1 90/71/1 86/1/1
f 35/36/1 5/30/1 27/80/1
f 27/80/1 29/81/1 28/82/1
f 28/82/1 26/4/1 27/80/1
f 26/4/1 15/44/1 36/38/1
f 26/4/1 36/38/1 45/5/1
f 35/36/1 27/80/1 41/6/1
f 41/6/1 27/80/1 26/4/1
f 50/8/1 7/83/1 11/84/1
f 7/83/1 4/85/1 11/84/1
f 11/84/1 51/9/1 50/8/1
f 51/9/1 58/49/1 54/7/1
f 84/11/1 9/86/1 85/12/1
f 9/86/1 1/87/1 16/29/1
f 85/12/1 9/86/1 16/29/1
f 85/12/1 96/73/1 92/10/1
f 8/15/1 67/62/1 66/58/1
f 67/62/1 74/61/1 66/58/1
f 74/61/1 70/56/1 66/58/1
f 66/58/1 12/13/1 8/15/1
f 22/16/1 13/26/1 68/25/1
f 22/16/1 68/25/1 77/17/1
f 25/88/1 24/89/1 22/16/1
f 8/15/1 23/90/1 67/62/1
f 23/90/1 25/88/1 22/16/1
f 67/62/1 23/90/1 73/18/1
f 73/18/1 23/90/1 22/16/1
f 14/78/1 31/20/1 83/3/1
f 31/20/1 33/91/1 93/21/1
f 83/3/1 31/20/1 89/19/1
f 33/91/1 32/92/1 93/21/1
f 32/92/1 30/93/1 93/21/1
f 30/93/1 9/86/1 84/11/1
f 30/93/1 84/11/1 93/21/1
f 2/14/1 12/13/1 6/23/1
f 12/13/1 53/24/1 6/23/1
f 53/24/1 64/53/1 60/51/1
f 60/51/1 52/22/1 53/24/1
f 13/26/1 3/77/1 10/79/1
f 10/79/1 69/27/1 13/26/1
f 69/27/1 80/64/1 68/25/1
f 80/64/1 76/63/1 68/25/1
f 16/29/1 1/87/1 5/30/1
f 5/30/1 35/36/1 34/28/1
f 35/36/1 42/35/1 34/28/1
f 42/35/1 38/31/1 34/28/1
f 38/31/1 40/34/1 39/32/1
f 38/31/1 42/35/1 43/33/1
f 41/6/2 43/33/2 42/35/2
f 45/5/2 46/40/2 43/33/2
f 44/37/2 46/40/2 45/5/2
f 48/39/1 49/43/1 46/40/1
f 47/41/1 49/43/1 48/39/1
f 39/32/1 40/34/1 49/43/1
f 40/34/1 43/33/1 46/40/1
f 7/83/1 37/42/1 15/44/1
f 37/42/1 48/39/1 36/38/1
f 7/83/1 15/44/1 4/85/1
f 48/39/1 44/37/1 36/38/1
f 54/7/1 56/47/1 55/45/1
f 54/7/1 58/49/1 59/46/1
f 57/48/2 59/46/2 58/49/2
f 57/48/2 61/52/2 62/50/2
f 60/51/2 62/50/2 61/52/2
f 64/53/1 65/55/1 62/50/1
f 63/54/1 65/55/1 64/53/1
f 63/54/1 55/45/1 56/47/1
f 59/46/1 62/50/1 65/55/1
f 70/56/1 72/60/1 71/57/1
f 70/56/1 74/61/1 75/59/1
f 73/18/2 75/59/2 74/61/2
f 77/17/2 78/65/2 75/59/2
f 76/63/2 78/65/2 77/17/2
f 80/64/1 81/67/1 78/65/1
f 79/66/1 81/67/1 80/64/1
f 71/57/1 72/60/1 81/67/1
f 72/60/1 75/59/1 78/65/1
f 86/1/1 88/70/1 87/68/1
f 86/1/1 90/71/1 91/69/1
f 89/19/2 91/69/2 90/71/2
f 89/19/2 93/21/2 94/72/2
f 92/10/2 94/72/2 93/21/2
f 96/73/1 97/75/1 94/72/1
f 95/74/1 97/75/1 96/73/1
f 95/74/1 87/68/1 88/70/1
f 91/69/1 94/72/1 97/75/1
f 51/9/1 11/84/1 18/76/1
f 18/76/1 21/94/1 20/95/1
f 20/95/1 19/96/1 17/97/1
f 17/97/1 6/23/1 52/22/1
f 17/97/1 52/22/1 61/52/1
f 18/76/1 20/95/1 17/97/1
f 57/48/1 51/9/1 18/76/1
f 17/97/1 61/52/1 18/76/1
