# Blender v2.92.0 OBJ File: ''
# www.blender.org
mtllib circle.mtl
o 円柱
v -0.000000 1.000000 0.000000
v -0.195090 0.980785 0.000000
v -0.382683 0.923880 0.000000
v -0.555570 0.831470 -0.000000
v -0.707107 0.707107 -0.000000
v -0.831470 0.555570 -0.000000
v -0.923880 0.382683 -0.000000
v -0.980785 0.195090 -0.000000
v -1.000000 0.000000 -0.000000
v -0.980785 -0.195090 -0.000000
v -0.923880 -0.382683 -0.000000
v -0.831470 -0.555570 -0.000000
v -0.707107 -0.707107 -0.000000
v -0.555570 -0.831470 -0.000000
v -0.382683 -0.923880 -0.000000
v -0.195090 -0.980785 -0.000000
v 0.000000 -1.000000 -0.000000
v 0.195091 -0.980785 -0.000000
v 0.382684 -0.923879 -0.000000
v 0.555571 -0.831469 0.000000
v 0.707107 -0.707106 0.000000
v 0.831470 -0.555570 0.000000
v 0.923880 -0.382683 0.000000
v 0.980785 -0.195089 0.000000
v 1.000000 0.000001 0.000000
v 0.980785 0.195091 0.000000
v 0.923879 0.382684 0.000000
v 0.831469 0.555571 0.000000
v 0.707106 0.707108 0.000000
v 0.555569 0.831470 0.000000
v 0.382682 0.923880 0.000000
v 0.195089 0.980786 0.000000
vt 0.050226 0.686359
vt 0.313688 0.050303
vt 0.949743 0.313766
vt 0.686281 0.949821
vt 0.594958 0.977523
vt 0.499985 0.986878
vt 0.405012 0.977524
vt 0.313689 0.949821
vt 0.229525 0.904835
vt 0.155754 0.844293
vt 0.095213 0.770523
vt 0.022523 0.595036
vt 0.013169 0.500063
vt 0.022523 0.405089
vt 0.050226 0.313766
vt 0.095212 0.229602
vt 0.155754 0.155832
vt 0.229524 0.095290
vt 0.405011 0.022601
vt 0.499984 0.013247
vt 0.594957 0.022601
vt 0.686281 0.050303
vt 0.770445 0.095290
vt 0.844215 0.155832
vt 0.904757 0.229602
vt 0.977446 0.405089
vt 0.986800 0.500062
vt 0.977446 0.595035
vt 0.949743 0.686358
vt 0.904757 0.770522
vt 0.844215 0.844293
vt 0.770445 0.904834
vn 0.0000 0.0000 -1.0000
usemtl マテリアル
s off
f 27/1/1 19/2/1 11/3/1
f 3/4/1 2/5/1 1/6/1
f 1/6/1 32/7/1 3/4/1
f 32/7/1 31/8/1 3/4/1
f 31/8/1 30/9/1 29/10/1
f 29/10/1 28/11/1 27/1/1
f 27/1/1 26/12/1 25/13/1
f 25/13/1 24/14/1 27/1/1
f 24/14/1 23/15/1 27/1/1
f 23/15/1 22/16/1 19/2/1
f 22/16/1 21/17/1 19/2/1
f 21/17/1 20/18/1 19/2/1
f 19/2/1 18/19/1 17/20/1
f 17/20/1 16/21/1 15/22/1
f 15/22/1 14/23/1 13/24/1
f 13/24/1 12/25/1 11/3/1
f 11/3/1 10/26/1 9/27/1
f 9/27/1 8/28/1 11/3/1
f 8/28/1 7/29/1 11/3/1
f 7/29/1 6/30/1 5/31/1
f 5/31/1 4/32/1 3/4/1
f 31/8/1 29/10/1 3/4/1
f 29/10/1 27/1/1 3/4/1
f 19/2/1 17/20/1 11/3/1
f 17/20/1 15/22/1 11/3/1
f 15/22/1 13/24/1 11/3/1
f 7/29/1 5/31/1 11/3/1
f 5/31/1 3/4/1 11/3/1
f 27/1/1 23/15/1 19/2/1
f 3/4/1 27/1/1 11/3/1
