# Blender v2.92.0 OBJ File: 'playerhead3.blend'
# www.blender.org
mtllib playerhead2.mtl
o 平面.001_平面.007
v 1.000000 2.433809 -0.000000
v 1.000000 2.427726 -0.000000
v 0.500000 2.433809 -0.000000
v -0.000000 2.433809 0.000000
v 0.500000 4.433809 -0.000000
v -0.000000 3.014411 -0.000000
v -0.500000 4.433809 -0.000000
v -1.000000 2.427726 0.000000
v -0.500000 2.433809 0.000000
v -1.000000 2.433809 0.000000
v -1.448685 2.031513 -0.000000
v -1.374382 2.043282 -0.000000
v -1.967785 2.031513 0.000000
v -2.042088 2.043282 0.000000
v -2.109118 2.077435 0.000000
v -2.162313 2.130630 0.000000
v -2.196467 2.197660 0.000000
v -2.208235 2.271963 0.000000
v -2.208235 2.791063 0.000000
v -2.196467 2.865366 0.000000
v -2.162313 2.932396 0.000000
v -2.109118 2.985591 0.000000
v -2.042088 3.019745 0.000000
v -1.967785 3.031513 0.000000
v -1.448685 3.031513 -0.000000
v -1.374382 3.019745 -0.000000
v -1.307352 2.985591 -0.000000
v -1.254157 2.932396 -0.000000
v -1.220003 2.865366 -0.000000
v -1.208235 2.791063 -0.000000
v -1.208235 2.271963 -0.000000
v -1.220003 2.197660 -0.000000
v -1.254157 2.130630 -0.000000
v -1.307352 2.077435 -0.000000
v 1.967780 2.031510 -0.000000
v 2.042083 2.043278 -0.000000
v 1.448680 2.031510 0.000000
v 1.374377 2.043278 0.000000
v 1.307347 2.077432 0.000000
v 1.254152 2.130627 0.000000
v 1.219998 2.197657 0.000000
v 1.208230 2.271960 0.000000
v 1.208230 2.791060 0.000000
v 1.219998 2.865363 0.000000
v 1.254152 2.932393 0.000000
v 1.307347 2.985588 0.000000
v 1.374377 3.019742 0.000000
v 1.448680 3.031510 0.000000
v 1.967780 3.031510 -0.000000
v 2.042083 3.019742 -0.000000
v 2.109113 2.985588 -0.000000
v 2.162308 2.932393 -0.000000
v 2.196461 2.865363 -0.000000
v 2.208230 2.791060 -0.000000
v 2.208230 2.271960 -0.000000
v 2.196461 2.197657 -0.000000
v 2.162308 2.130627 -0.000000
v 2.109113 2.077432 -0.000000
v -2.375891 1.043308 -0.000000
v -2.316448 1.052722 -0.000000
v -2.791171 1.043308 0.000000
v -2.850613 1.052722 0.000000
v -2.904237 1.080045 0.000000
v -2.946793 1.122601 0.000000
v -2.974116 1.176225 0.000000
v -2.983531 1.235668 0.000000
v -2.983531 1.650948 0.000000
v -2.974116 1.710390 0.000000
v -2.946793 1.764014 0.000000
v -2.904237 1.806570 0.000000
v -2.850613 1.833893 0.000000
v -2.791171 1.843308 -0.000000
v -2.375891 1.843308 -0.000000
v -2.316448 1.833893 -0.000000
v -2.262824 1.806570 -0.000000
v -2.220268 1.764014 -0.000000
v -2.192946 1.710390 -0.000000
v -2.183531 1.650948 -0.000000
v -2.183531 1.235668 -0.000000
v -2.192946 1.176225 -0.000000
v -2.220268 1.122601 -0.000000
v -2.262824 1.080045 -0.000000
v 2.791170 1.043310 -0.000000
v 2.850612 1.052725 -0.000000
v 2.375890 1.043310 0.000000
v 2.316447 1.052725 0.000000
v 2.262823 1.080047 0.000000
v 2.220267 1.122604 0.000000
v 2.192945 1.176228 0.000000
v 2.183530 1.235670 0.000000
v 2.183530 1.650950 0.000000
v 2.192945 1.710392 0.000000
v 2.220267 1.764016 0.000000
v 2.262823 1.806573 0.000000
v 2.316447 1.833895 0.000000
v 2.375890 1.843310 -0.000000
v 2.791170 1.843310 -0.000000
v 2.850612 1.833895 -0.000000
v 2.904236 1.806573 -0.000000
v 2.946792 1.764016 -0.000000
v 2.974115 1.710392 -0.000000
v 2.983530 1.650950 -0.000000
v 2.983530 1.235670 -0.000000
v 2.974115 1.176228 -0.000000
v 2.946792 1.122604 -0.000000
v 2.904236 1.080047 -0.000000
vt 0.586076 0.526740
vt 0.613874 0.526402
vt 0.613874 0.526740
vt 0.558278 0.559020
vt 0.586076 0.637934
vt 0.530479 0.526740
vt 0.558278 0.526740
vt 0.502681 0.526402
vt 0.530479 0.637934
vt 0.491103 0.546603
vt 0.435507 0.517742
vt 0.448875 0.559971
vt 0.681048 0.546603
vt 0.625451 0.517742
vt 0.638820 0.559971
vt 0.436880 0.483216
vt 0.392403 0.460128
vt 0.403097 0.493910
vt 0.724153 0.483216
vt 0.679675 0.460128
vt 0.690370 0.493911
vt 0.502681 0.526740
vt 0.491103 0.517742
vt 0.477735 0.504374
vt 0.490449 0.513611
vt 0.488550 0.509885
vt 0.485593 0.506927
vt 0.481866 0.505028
vt 0.448875 0.504374
vt 0.444744 0.505028
vt 0.441017 0.506927
vt 0.438060 0.509885
vt 0.436161 0.513611
vt 0.435507 0.546603
vt 0.436161 0.550734
vt 0.438060 0.554460
vt 0.441017 0.557418
vt 0.444744 0.559317
vt 0.477735 0.559971
vt 0.481866 0.559317
vt 0.485593 0.557418
vt 0.488550 0.554460
vt 0.490449 0.550734
vt 0.681048 0.517742
vt 0.667680 0.504374
vt 0.680394 0.513611
vt 0.678495 0.509885
vt 0.675538 0.506927
vt 0.671811 0.505028
vt 0.638820 0.504374
vt 0.634689 0.505028
vt 0.630962 0.506927
vt 0.628004 0.509885
vt 0.626106 0.513611
vt 0.625451 0.546603
vt 0.626106 0.550734
vt 0.628004 0.554460
vt 0.630962 0.557418
vt 0.634689 0.559317
vt 0.667680 0.559971
vt 0.671811 0.559317
vt 0.675538 0.557418
vt 0.678495 0.554460
vt 0.680394 0.550734
vt 0.436880 0.460128
vt 0.426185 0.449433
vt 0.436357 0.456823
vt 0.434838 0.453841
vt 0.432472 0.451475
vt 0.429490 0.449956
vt 0.403097 0.449433
vt 0.399792 0.449956
vt 0.396811 0.451475
vt 0.394445 0.453841
vt 0.392926 0.456823
vt 0.392403 0.483216
vt 0.392926 0.486521
vt 0.394445 0.489502
vt 0.396811 0.491868
vt 0.399792 0.493387
vt 0.426185 0.493910
vt 0.429490 0.493387
vt 0.432472 0.491868
vt 0.434838 0.489502
vt 0.436357 0.486521
vt 0.724153 0.460128
vt 0.713458 0.449433
vt 0.723629 0.456823
vt 0.722110 0.453842
vt 0.719744 0.451476
vt 0.716763 0.449956
vt 0.690370 0.449433
vt 0.687065 0.449956
vt 0.684084 0.451476
vt 0.681718 0.453842
vt 0.680198 0.456823
vt 0.679675 0.483216
vt 0.680198 0.486521
vt 0.681718 0.489502
vt 0.684084 0.491868
vt 0.687065 0.493387
vt 0.713458 0.493911
vt 0.716763 0.493387
vt 0.719744 0.491868
vt 0.722110 0.489502
vt 0.723629 0.486521
vn 0.0000 -0.0000 1.0000
vn 0.0000 -0.0000 -1.0000
usemtl マテリアル.001
s off
f 3/1/1 2/2/1 1/3/1
f 3/1/2 6/4/2 5/5/2
f 9/6/2 6/4/2 4/7/2
f 9/6/2 8/8/2 7/9/2
f 30/10/2 18/11/2 24/12/2
f 54/13/2 42/14/2 48/15/2
f 78/16/2 66/17/2 72/18/2
f 102/19/2 90/20/2 96/21/2
f 3/1/2 5/5/2 2/2/2
f 3/1/2 4/7/2 6/4/2
f 9/6/2 7/9/2 6/4/2
f 9/6/1 10/22/1 8/8/1
f 30/10/2 31/23/2 11/24/2
f 31/23/2 32/25/2 11/24/2
f 32/25/2 33/26/2 34/27/2
f 34/27/2 12/28/2 11/24/2
f 11/24/2 13/29/2 18/11/2
f 13/29/2 14/30/2 18/11/2
f 14/30/2 15/31/2 18/11/2
f 15/31/2 16/32/2 18/11/2
f 16/32/2 17/33/2 18/11/2
f 18/11/2 19/34/2 24/12/2
f 19/34/2 20/35/2 24/12/2
f 20/35/2 21/36/2 22/37/2
f 22/37/2 23/38/2 24/12/2
f 24/12/2 25/39/2 30/10/2
f 25/39/2 26/40/2 30/10/2
f 26/40/2 27/41/2 30/10/2
f 27/41/2 28/42/2 30/10/2
f 28/42/2 29/43/2 30/10/2
f 32/25/2 34/27/2 11/24/2
f 30/10/2 11/24/2 18/11/2
f 20/35/2 22/37/2 24/12/2
f 54/13/2 55/44/2 35/45/2
f 55/44/2 56/46/2 35/45/2
f 56/46/2 57/47/2 58/48/2
f 58/48/2 36/49/2 35/45/2
f 35/45/2 37/50/2 42/14/2
f 37/50/2 38/51/2 42/14/2
f 38/51/2 39/52/2 42/14/2
f 39/52/2 40/53/2 42/14/2
f 40/53/2 41/54/2 42/14/2
f 42/14/2 43/55/2 48/15/2
f 43/55/2 44/56/2 48/15/2
f 44/56/2 45/57/2 46/58/2
f 46/58/2 47/59/2 48/15/2
f 48/15/2 49/60/2 54/13/2
f 49/60/2 50/61/2 54/13/2
f 50/61/2 51/62/2 52/63/2
f 52/63/2 53/64/2 54/13/2
f 56/46/2 58/48/2 35/45/2
f 54/13/2 35/45/2 42/14/2
f 44/56/2 46/58/2 48/15/2
f 50/61/2 52/63/2 54/13/2
f 78/16/2 79/65/2 59/66/2
f 79/65/2 80/67/2 59/66/2
f 80/67/2 81/68/2 82/69/2
f 82/69/2 60/70/2 59/66/2
f 59/66/2 61/71/2 66/17/2
f 61/71/2 62/72/2 66/17/2
f 62/72/2 63/73/2 64/74/2
f 64/74/2 65/75/2 62/72/2
f 65/75/2 66/17/2 62/72/2
f 66/17/2 67/76/2 72/18/2
f 67/76/2 68/77/2 72/18/2
f 68/77/2 69/78/2 70/79/2
f 70/79/2 71/80/2 72/18/2
f 72/18/2 73/81/2 78/16/2
f 73/81/2 74/82/2 78/16/2
f 74/82/2 75/83/2 76/84/2
f 76/84/2 77/85/2 74/82/2
f 77/85/2 78/16/2 74/82/2
f 80/67/2 82/69/2 59/66/2
f 78/16/2 59/66/2 66/17/2
f 68/77/2 70/79/2 72/18/2
f 102/19/2 103/86/2 83/87/2
f 103/86/2 104/88/2 83/87/2
f 104/88/2 105/89/2 106/90/2
f 106/90/2 84/91/2 83/87/2
f 83/87/2 85/92/2 90/20/2
f 85/92/2 86/93/2 90/20/2
f 86/93/2 87/94/2 90/20/2
f 87/94/2 88/95/2 90/20/2
f 88/95/2 89/96/2 90/20/2
f 90/20/2 91/97/2 96/21/2
f 91/97/2 92/98/2 96/21/2
f 92/98/2 93/99/2 94/100/2
f 94/100/2 95/101/2 96/21/2
f 96/21/2 97/102/2 102/19/2
f 97/102/2 98/103/2 102/19/2
f 98/103/2 99/104/2 100/105/2
f 100/105/2 101/106/2 102/19/2
f 104/88/2 106/90/2 83/87/2
f 102/19/2 83/87/2 90/20/2
f 92/98/2 94/100/2 96/21/2
f 98/103/2 100/105/2 102/19/2
