# Blender v2.92.0 OBJ File: ''
# www.blender.org
mtllib poruta.mtl
o 平面_平面.002
v 1.000000 -1.591041 -0.000000
v -1.000000 -1.591041 0.000000
v 1.000000 0.494332 -0.000000
v -1.000000 0.494332 0.000000
v 1.000000 0.000000 -0.000000
v -1.000000 0.000000 0.000000
v 0.000000 -0.546869 0.000000
v -0.000000 1.538504 -0.000000
v -0.467164 -1.013134 0.000000
v -0.500000 1.000000 0.000000
v -0.718904 -0.346598 0.000000
v 0.500000 1.000000 -0.000000
v 0.718904 -0.346598 -0.000000
v 0.467164 -1.013134 0.000000
v -1.000000 -0.005668 0.000000
v 1.000000 -0.005668 -0.000000
v -0.000000 1.038504 -0.000000
v -0.742546 0.350707 0.000000
v 0.742546 0.350707 -0.000000
v 1.000000 -1.091041 -0.000000
v -1.000000 -1.091041 0.000000
v 0.000000 -0.046869 0.000000
v -0.718904 -0.846598 0.000000
v 0.718904 -0.846598 -0.000000
v -0.483850 -0.342984 0.000000
v -0.444056 -0.326500 -0.000000
v -0.416483 -0.298927 -0.000000
v -0.400000 -0.259133 -0.000000
v -0.600000 -0.259133 0.000000
v -0.583517 -0.298927 0.000000
v -0.555944 -0.326500 0.000000
v -0.516150 -0.342984 0.000000
v -0.444056 -0.159467 -0.000000
v -0.483850 -0.142984 -0.000000
v -0.416483 -0.187040 -0.000000
v -0.400000 -0.226834 -0.000000
v -0.516150 -0.142984 -0.000000
v -0.555944 -0.159467 0.000000
v -0.583517 -0.187040 0.000000
v -0.600000 -0.226834 0.000000
v 0.516150 -0.342984 0.000000
v 0.555944 -0.326500 -0.000000
v 0.583517 -0.298927 -0.000000
v 0.600000 -0.259133 -0.000000
v 0.400000 -0.259133 0.000000
v 0.416483 -0.298927 0.000000
v 0.444056 -0.326500 0.000000
v 0.483850 -0.342984 0.000000
v 0.555944 -0.159467 -0.000000
v 0.516150 -0.142984 -0.000000
v 0.583517 -0.187040 -0.000000
v 0.600000 -0.226834 -0.000000
v 0.483850 -0.142984 -0.000000
v 0.444056 -0.159467 0.000000
v 0.416483 -0.187040 0.000000
v 0.400000 -0.226834 0.000000
vt 0.481627 0.579295
vt 0.461015 0.590793
vt 0.501045 0.631277
vt 0.461015 0.463869
vt 0.483520 0.523469
vt 0.483520 0.483439
vt 0.541075 0.634360
vt 0.581105 0.631277
vt 0.600523 0.579295
vt 0.541075 0.674389
vt 0.621135 0.590793
vt 0.621135 0.550763
vt 0.621135 0.463869
vt 0.598630 0.523469
vt 0.621135 0.551217
vt 0.461015 0.551217
vt 0.578476 0.470106
vt 0.621135 0.423839
vt 0.541075 0.507435
vt 0.541075 0.547465
vt 0.598630 0.483439
vt 0.503674 0.470106
vt 0.505524 0.538450
vt 0.496566 0.525078
vt 0.494359 0.536243
vt 0.585584 0.538450
vt 0.576626 0.525078
vt 0.574419 0.536243
vt 0.461015 0.550763
vt 0.461015 0.423839
vt 0.509051 0.533057
vt 0.509051 0.530471
vt 0.507732 0.527285
vt 0.505524 0.525078
vt 0.502338 0.523758
vt 0.499752 0.523758
vt 0.494359 0.527285
vt 0.493039 0.530471
vt 0.493039 0.533057
vt 0.496566 0.538450
vt 0.499752 0.539770
vt 0.502338 0.539770
vt 0.507732 0.536243
vt 0.589111 0.533057
vt 0.589111 0.530471
vt 0.587791 0.527285
vt 0.585584 0.525078
vt 0.582398 0.523758
vt 0.579812 0.523758
vt 0.574419 0.527285
vt 0.573099 0.530471
vt 0.573099 0.533057
vt 0.576626 0.538450
vt 0.579812 0.539770
vt 0.582398 0.539770
vt 0.587791 0.536243
vn -0.0000 -0.0000 -1.0000
vn -0.0000 -0.0000 1.0000
usemtl マテリアル
s off
f 18/1/1 4/2/1 10/3/1
f 21/4/1 11/5/1 23/6/1
f 17/7/1 12/8/1 19/9/1
f 17/7/1 10/3/1 8/10/1
f 19/9/1 3/11/1 16/12/1
f 20/13/1 13/14/1 5/15/1
f 5/15/2 19/9/2 16/12/2
f 6/16/1 18/1/1 11/5/1
f 14/17/1 20/13/1 1/18/1
f 7/19/1 23/6/1 22/20/1
f 7/19/1 24/21/1 14/17/1
f 9/22/1 21/4/1 23/6/1
f 33/23/1 31/24/1 39/25/1
f 49/26/1 47/27/1 55/28/1
f 18/1/1 15/29/1 4/2/1
f 21/4/1 6/16/1 11/5/1
f 17/7/1 8/10/1 12/8/1
f 17/7/1 18/1/1 10/3/1
f 19/9/1 12/8/1 3/11/1
f 20/13/1 24/21/1 13/14/1
f 5/15/1 13/14/1 19/9/1
f 6/16/2 15/29/2 18/1/2
f 14/17/1 24/21/1 20/13/1
f 7/19/1 9/22/1 23/6/1
f 7/19/1 22/20/1 24/21/1
f 9/22/1 2/30/1 21/4/1
f 36/31/1 28/32/1 27/33/1
f 27/33/1 26/34/1 31/24/1
f 26/34/1 25/35/1 31/24/1
f 25/35/1 32/36/1 31/24/1
f 31/24/1 30/37/1 39/25/1
f 30/37/1 29/38/1 39/25/1
f 29/38/1 40/39/1 39/25/1
f 39/25/1 38/40/1 33/23/1
f 38/40/1 37/41/1 33/23/1
f 37/41/1 34/42/1 33/23/1
f 33/23/1 35/43/1 27/33/1
f 35/43/1 36/31/1 27/33/1
f 27/33/1 31/24/1 33/23/1
f 52/44/1 44/45/1 43/46/1
f 43/46/1 42/47/1 47/27/1
f 42/47/1 41/48/1 47/27/1
f 41/48/1 48/49/1 47/27/1
f 47/27/1 46/50/1 55/28/1
f 46/50/1 45/51/1 55/28/1
f 45/51/1 56/52/1 55/28/1
f 55/28/1 54/53/1 49/26/1
f 54/53/1 53/54/1 49/26/1
f 53/54/1 50/55/1 49/26/1
f 49/26/1 51/56/1 43/46/1
f 51/56/1 52/44/1 43/46/1
f 43/46/1 47/27/1 49/26/1
